{
	"asset":{
		"generator":"Khronos glTF Blender I/O v3.5.30",
		"version":"2.0"
	},
	"scene":0,
	"scenes":[
		{
			"name":"Scene",
			"nodes":[
				0
			]
		}
	],
	"nodes":[
		{
			"mesh":0,
			"name":"Mesh_0"
		}
	],
	"materials":[
		{
			"doubleSided":true,
			"name":"Material_0",
			"pbrMetallicRoughness":{
				"baseColorTexture":{
					"index":0
				},
				"metallicFactor":0,
				"roughnessFactor":0.800000011920929
			}
		}
	],
	"meshes":[
		{
			"name":"Mesh_0",
			"primitives":[
				{
					"attributes":{
						"POSITION":0,
						"TEXCOORD_0":1,
						"NORMAL":2
					},
					"indices":3,
					"material":0
				}
			]
		}
	],
	"textures":[
		{
			"sampler":0,
			"source":0
		}
	],
	"images":[
		{
			"mimeType":"image/jpeg",
			"name":"Image_0",
			"uri":"Image_0.jpg"
		}
	],
	"accessors":[
		{
			"bufferView":0,
			"componentType":5126,
			"count":46427,
			"max":[
				1.0087499618530273,
				0.5635409951210022,
				0.27702099084854126
			],
			"min":[
				-0.9980459809303284,
				-0.5650179982185364,
				-0.28218400478363037
			],
			"type":"VEC3"
		},
		{
			"bufferView":1,
			"componentType":5126,
			"count":46427,
			"type":"VEC2"
		},
		{
			"bufferView":2,
			"componentType":5126,
			"count":46427,
			"type":"VEC3"
		},
		{
			"bufferView":3,
			"componentType":5123,
			"count":200295,
			"type":"SCALAR"
		}
	],
	"bufferViews":[
		{
			"buffer":0,
			"byteLength":557124,
			"byteOffset":0,
			"target":34962
		},
		{
			"buffer":0,
			"byteLength":371416,
			"byteOffset":557124,
			"target":34962
		},
		{
			"buffer":0,
			"byteLength":557124,
			"byteOffset":928540,
			"target":34962
		},
		{
			"buffer":0,
			"byteLength":400590,
			"byteOffset":1485664,
			"target":34963
		}
	],
	"samplers":[
		{
			"magFilter":9729,
			"minFilter":9987
		}
	],
	"buffers":[
		{
			"byteLength":1886256,
			"uri":"scene.bin"
		}
	]
}
