{
	"asset":{
		"generator":"Khronos glTF Blender I/O v3.5.30",
		"version":"2.0"
	},
	"extensionsUsed":[
		"KHR_materials_specular"
	],
	"scene":0,
	"scenes":[
		{
			"name":"Scene",
			"nodes":[
				4
			]
		}
	],
	"nodes":[
		{
			"mesh":0,
			"name":"SolarPanel_SolarPanel_0"
		},
		{
			"children":[
				0
			],
			"name":"SolarPanel",
			"rotation":[
				-0.3826834559440613,
				0,
				0,
				0.9238795638084412
			],
			"translation":[
				-4.68956604890991e-05,
				12.206022262573242,
				35.52517318725586
			]
		},
		{
			"children":[
				1
			],
			"name":"RootNode"
		},
		{
			"children":[
				2
			],
			"name":"fd574d18d2ff4b1b9f07c19132d31521.fbx",
			"rotation":[
				0.70710688829422,
				0,
				0,
				0.7071066498756409
			]
		},
		{
			"children":[
				3
			],
			"name":"Sketchfab_model",
			"rotation":[
				-0.70710688829422,
				0,
				0,
				0.7071066498756409
			]
		}
	],
	"materials":[
		{
			"doubleSided":true,
			"extensions":{
				"KHR_materials_specular":{
					"specularColorTexture":{
						"index":0
					}
				}
			},
			"name":"SolarPanel",
			"normalTexture":{
				"index":1
			},
			"pbrMetallicRoughness":{
				"baseColorTexture":{
					"index":2
				},
				"metallicRoughnessTexture":{
					"index":3
				}
			}
		}
	],
	"meshes":[
		{
			"name":"SolarPanel_SolarPanel_0",
			"primitives":[
				{
					"attributes":{
						"POSITION":0,
						"TEXCOORD_0":1,
						"NORMAL":2
					},
					"indices":3,
					"material":0
				}
			]
		}
	],
	"textures":[
		{
			"sampler":0,
			"source":0
		},
		{
			"sampler":0,
			"source":1
		},
		{
			"sampler":0,
			"source":2
		},
		{
			"sampler":0,
			"source":3
		}
	],
	"images":[
		{
			"mimeType":"image/png",
			"name":"Image",
			"uri":"Image.png"
		},
		{
			"mimeType":"image/png",
			"name":"SolarPanel_normal",
			"uri":"SolarPanel_normal.png"
		},
		{
			"mimeType":"image/png",
			"name":"SolarPanel_baseColor",
			"uri":"SolarPanel_baseColor.png"
		},
		{
			"mimeType":"image/png",
			"name":"SolarPanel_metallicRoughness",
			"uri":"SolarPanel_metallicRoughness.png"
		}
	],
	"accessors":[
		{
			"bufferView":0,
			"componentType":5126,
			"count":1783,
			"max":[
				82.6300048828125,
				82.26142120361328,
				7.029917240142822
			],
			"min":[
				-82.62994384765625,
				-2.5342702865600586,
				-44.6797981262207
			],
			"type":"VEC3"
		},
		{
			"bufferView":1,
			"componentType":5126,
			"count":1783,
			"type":"VEC2"
		},
		{
			"bufferView":2,
			"componentType":5126,
			"count":1783,
			"type":"VEC3"
		},
		{
			"bufferView":3,
			"componentType":5123,
			"count":5562,
			"type":"SCALAR"
		}
	],
	"bufferViews":[
		{
			"buffer":0,
			"byteLength":21396,
			"byteOffset":0,
			"target":34962
		},
		{
			"buffer":0,
			"byteLength":14264,
			"byteOffset":21396,
			"target":34962
		},
		{
			"buffer":0,
			"byteLength":21396,
			"byteOffset":35660,
			"target":34962
		},
		{
			"buffer":0,
			"byteLength":11124,
			"byteOffset":57056,
			"target":34963
		}
	],
	"samplers":[
		{
			"magFilter":9729,
			"minFilter":9987
		}
	],
	"buffers":[
		{
			"byteLength":68180,
			"uri":"scene.bin"
		}
	]
}
