<?xml version="1.0" encoding="UTF-8"?>
<!DOCTYPE svg PUBLIC "-//W3C//DTD SVG 1.1//EN" "http://www.w3.org/Graphics/SVG/1.1/DTD/svg11.dtd">
<!-- Creator: CorelDRAW -->
<svg xmlns="http://www.w3.org/2000/svg" xml:space="preserve" width="2048px" height="2048px" style="shape-rendering:geometricPrecision; text-rendering:geometricPrecision; image-rendering:optimizeQuality; fill-rule:evenodd; clip-rule:evenodd"
viewBox="0 0 2048 2048"
 xmlns:xlink="http://www.w3.org/1999/xlink">
 <defs>
  <style type="text/css">
   <![CDATA[
    .fil1 {fill:none}
    .fil0 {fill:#212121;fill-rule:nonzero}
   ]]>
  </style>
 </defs>
 <g id="Layer_x0020_1">
  <metadata id="CorelCorpID_0Corel-Layer"/>
  <g id="_557072696">
   <path id="_557072312" class="fil0" d="M728.792 1168.65l123.372 0 0 -129.748c0,-17.6728 14.328,-32.0008 32.0008,-32.0008 4.97481,0 9.68505,1.13504 13.8851,3.16181 19.4138,7.33465 39.6237,13.0252 60.4607,16.8921 20.8795,3.87638 42.7607,5.90434 65.491,5.90434 22.7303,0 44.6115,-2.02914 65.4886,-5.90434 21.691,-4.0252 42.7052,-10.0276 62.8453,-17.8016l11.5004 29.7496 -11.524 -29.8536c16.487,-6.36378 35.0138,1.84252 41.3776,18.3295 1.5378,3.98268 2.22166,8.08465 2.14725,12.1063l0 129.164 123.373 0c111.379,0 212.612,45.5422 285.983,118.913 73.3713,73.3713 118.913,174.605 118.913,285.983l0 186.449c0,17.6728 -14.328,32.0008 -32.0008,32.0008l-1336.21 0c-17.6728,0 -32.0008,-14.328 -32.0008,-32.0008l0 -186.449c0,-111.378 45.5422,-212.612 118.913,-285.983 73.3713,-73.3713 174.604,-118.913 285.983,-118.913zm155.373 64.0016l-155.373 0c-93.7135,0 -178.931,38.3611 -240.732,100.162 -61.8012,61.8012 -100.162,147.02 -100.162,240.732l0 154.448 1272.21 0 0 -154.448c0,-93.7123 -38.3611,-178.931 -100.162,-240.732 -61.8012,-61.8012 -147.019,-100.162 -240.732,-100.162l-155.374 0c-17.6728,0 -32.0008,-14.328 -32.0008,-32.0008l0 -117.884c-10.135,2.68701 -20.4225,5.00315 -30.8457,6.9378 -25.3051,4.69725 -51.0485,7.1563 -76.9879,7.1563 -25.9406,0 -51.6839,-2.45906 -76.9902,-7.1563 -10.4232,-1.93465 -20.7095,-4.25079 -30.8457,-6.9378l0 117.884c0,17.6728 -14.328,32.0008 -32.0008,32.0008z"/>
   <path id="_557072936" class="fil0" d="M1024 255.998c116.095,0 221.204,47.0599 297.29,123.144 76.0843,76.0855 123.144,181.194 123.144,297.29 0,116.095 -47.0599,221.204 -123.144,297.288 -76.0843,76.0843 -181.194,123.145 -297.29,123.145 -116.095,0 -221.204,-47.0599 -297.288,-123.145 -76.0843,-76.0843 -123.144,-181.193 -123.144,-297.288 0,-116.095 47.0599,-221.204 123.144,-297.288 76.0843,-76.0855 181.193,-123.145 297.288,-123.145zm252.039 168.395c-64.5,-64.4989 -153.61,-104.393 -252.039,-104.393 -98.4296,0 -187.539,39.8941 -252.038,104.394 -64.4989,64.4989 -104.393,153.608 -104.393,252.038 0,98.4296 39.8941,187.539 104.393,252.038 64.4989,64.5 153.608,104.394 252.038,104.394 98.4296,0 187.54,-39.8953 252.039,-104.394 64.4989,-64.4989 104.393,-153.608 104.393,-252.038 0,-98.4296 -39.8941,-187.539 -104.393,-252.039z"/>
   <path id="_557072648" class="fil0" d="M644.887 575.21c-17.5347,-1.72559 -33.15,11.0906 -34.8756,28.6252 -1.72559,17.5347 11.0906,33.15 28.6252,34.8756 0.523229,0.0531496 171.689,19.2236 469.818,-121.249 19.6417,43.6914 87.9438,97.9501 294.358,123.796 17.5347,2.14016 33.4855,-10.3406 35.6256,-27.8752 2.14016,-17.5347 -10.3406,-33.4855 -27.8752,-35.6256 -258.096,-32.3185 -249.34,-84.7383 -246.092,-93.2576 5.42953,-9.08387 6.24095,-20.6669 1.13386,-30.8221 -7.93938,-15.789 -27.1772,-22.1504 -42.9662,-14.211l14.3776 28.5886 -14.3752 -28.5c-307.779,154.789 -477.259,135.704 -477.754,135.654z"/>
   <path id="_557072480" class="fil0" d="M909.29 1180.91c-10.9075,-13.8756 -31.0004,-16.2827 -44.876,-5.3752 -13.8756,10.9075 -16.2827,31.0004 -5.3752,44.876l140.029 178.121 25.1256 -19.7504 -25.1575 19.7776c10.9228,13.8933 31.0418,16.3028 44.9351,5.37993 2.52874,-1.9878 4.67481,-4.2815 6.43111,-6.78426l138.946 -176.744c10.9075,-13.8756 8.5004,-33.9685 -5.3752,-44.876 -13.8756,-10.9075 -33.9685,-8.5004 -44.876,5.3752l-114.904 146.16 -114.904 -146.16z"/>
   <path id="_557072576" class="fil0" d="M568.256 1760c0,17.6728 14.328,32.0008 32.0008,32.0008 17.6728,0 32.0008,-14.328 32.0008,-32.0008l0 -224c0,-17.6728 -14.328,-32.0008 -32.0008,-32.0008 -17.6728,0 -32.0008,14.328 -32.0008,32.0008l0 224z"/>
   <path id="_557072744" class="fil0" d="M1415.74 1760c0,17.6728 14.328,32.0008 32.0008,32.0008 17.6728,0 32.0008,-14.328 32.0008,-32.0008l0 -224c0,-17.6728 -14.328,-32.0008 -32.0008,-32.0008 -17.6728,0 -32.0008,14.328 -32.0008,32.0008l0 224z"/>
  </g>
 </g>
 <rect class="fil1" width="2048" height="2048"/>
</svg>
