{
	"asset":{
		"generator":"Khronos glTF Blender I/O v3.5.30",
		"version":"2.0"
	},
	"scene":0,
	"scenes":[
		{
			"name":"Scene",
			"nodes":[
				0
			]
		}
	],
	"nodes":[
		{
			"mesh":0,
			"name":"Mesh_0",
			"scale":[
				7,
				7,
				7
			],
			"translation":[
				-0.0623583123087883,
				1,
				-0.24079009890556335
			]
		}
	],
	"materials":[
		{
			"doubleSided":true,
			"name":"Material_0",
			"pbrMetallicRoughness":{
				"baseColorTexture":{
					"index":0
				},
				"metallicFactor":0,
				"roughnessFactor":0.800000011920929
			}
		}
	],
	"meshes":[
		{
			"name":"Mesh_0",
			"primitives":[
				{
					"attributes":{
						"POSITION":0,
						"TEXCOORD_0":1,
						"NORMAL":2
					},
					"indices":3,
					"material":0
				}
			]
		}
	],
	"textures":[
		{
			"sampler":0,
			"source":0
		}
	],
	"images":[
		{
			"mimeType":"image/jpeg",
			"name":"Image_0",
			"uri":"Image_0.jpg"
		}
	],
	"accessors":[
		{
			"bufferView":0,
			"componentType":5126,
			"count":47453,
			"max":[
				1.062817931175232,
				0.8417112231254578,
				0.7098420262336731
			],
			"min":[
				-0.9461019039154053,
				-0.2582228183746338,
				-0.22072698175907135
			],
			"type":"VEC3"
		},
		{
			"bufferView":1,
			"componentType":5126,
			"count":47453,
			"type":"VEC2"
		},
		{
			"bufferView":2,
			"componentType":5126,
			"count":47453,
			"type":"VEC3"
		},
		{
			"bufferView":3,
			"componentType":5123,
			"count":198789,
			"type":"SCALAR"
		}
	],
	"bufferViews":[
		{
			"buffer":0,
			"byteLength":569436,
			"byteOffset":0,
			"target":34962
		},
		{
			"buffer":0,
			"byteLength":379624,
			"byteOffset":569436,
			"target":34962
		},
		{
			"buffer":0,
			"byteLength":569436,
			"byteOffset":949060,
			"target":34962
		},
		{
			"buffer":0,
			"byteLength":397578,
			"byteOffset":1518496,
			"target":34963
		}
	],
	"samplers":[
		{
			"magFilter":9729,
			"minFilter":9987
		}
	],
	"buffers":[
		{
			"byteLength":1916076,
			"uri":"scene.bin"
		}
	]
}
