{
	"asset":{
		"generator":"Khronos glTF Blender I/O v3.5.30",
		"version":"2.0"
	},
	"scene":0,
	"scenes":[
		{
			"name":"Scene",
			"nodes":[
				0
			]
		}
	],
	"nodes":[
		{
			"mesh":0,
			"name":"Mesh_0",
			"translation":[
				-0.0623583123087883,
				-0.25355008244514465,
				-0.24079009890556335
			]
		}
	],
	"materials":[
		{
			"doubleSided":true,
			"name":"Material_0",
			"pbrMetallicRoughness":{
				"baseColorTexture":{
					"index":0
				},
				"metallicFactor":0,
				"roughnessFactor":0.800000011920929
			}
		}
	],
	"meshes":[
		{
			"name":"Mesh_0",
			"primitives":[
				{
					"attributes":{
						"POSITION":0,
						"TEXCOORD_0":1,
						"NORMAL":2
					},
					"indices":3,
					"material":0
				}
			]
		}
	],
	"textures":[
		{
			"sampler":0,
			"source":0
		}
	],
	"images":[
		{
			"mimeType":"image/jpeg",
			"name":"Image_0",
			"uri":"Image_0.jpg"
		}
	],
	"accessors":[
		{
			"bufferView":0,
			"componentType":5126,
			"count":46938,
			"max":[
				1.0640782117843628,
				0.8018240928649902,
				0.7064601182937622
			],
			"min":[
				-0.9448416829109192,
				-0.29810991883277893,
				-0.22410890460014343
			],
			"type":"VEC3"
		},
		{
			"bufferView":1,
			"componentType":5126,
			"count":46938,
			"type":"VEC2"
		},
		{
			"bufferView":2,
			"componentType":5126,
			"count":46938,
			"type":"VEC3"
		},
		{
			"bufferView":3,
			"componentType":5123,
			"count":198789,
			"type":"SCALAR"
		}
	],
	"bufferViews":[
		{
			"buffer":0,
			"byteLength":563256,
			"byteOffset":0,
			"target":34962
		},
		{
			"buffer":0,
			"byteLength":375504,
			"byteOffset":563256,
			"target":34962
		},
		{
			"buffer":0,
			"byteLength":563256,
			"byteOffset":938760,
			"target":34962
		},
		{
			"buffer":0,
			"byteLength":397578,
			"byteOffset":1502016,
			"target":34963
		}
	],
	"samplers":[
		{
			"magFilter":9729,
			"minFilter":9987
		}
	],
	"buffers":[
		{
			"byteLength":1899596,
			"uri":"scene.bin"
		}
	]
}
