{
	"asset":{
		"generator":"Khronos glTF Blender I/O v3.5.30",
		"version":"2.0"
	},
	"scene":0,
	"scenes":[
		{
			"name":"Scene",
			"nodes":[
				9
			]
		}
	],
	"nodes":[
		{
			"mesh":0,
			"name":"Object_2",
			"translation":[
				0.32904252409935,
				-0.14925146102905273,
				-0.7342665195465088
			]
		},
		{
			"mesh":1,
			"name":"Object_3",
			"translation":[
				0.32904252409935,
				-0.14925146102905273,
				-0.7342665195465088
			]
		},
		{
			"mesh":2,
			"name":"Object_4",
			"translation":[
				0.32904252409935,
				-0.14925146102905273,
				-0.7342665195465088
			]
		},
		{
			"mesh":3,
			"name":"Object_5",
			"translation":[
				0.32904252409935,
				-0.14925146102905273,
				-0.7342665195465088
			]
		},
		{
			"mesh":4,
			"name":"Object_6",
			"translation":[
				0.32904252409935,
				-0.14925146102905273,
				-0.7342665195465088
			]
		},
		{
			"mesh":5,
			"name":"Object_7",
			"translation":[
				0.32904252409935,
				-0.14925146102905273,
				-0.7342665195465088
			]
		},
		{
			"mesh":6,
			"name":"Object_8",
			"translation":[
				0.32904252409935,
				-0.14925146102905273,
				-0.7342665195465088
			]
		},
		{
			"mesh":7,
			"name":"Object_9",
			"translation":[
				0.32904252409935,
				-0.14925146102905273,
				-0.7342665195465088
			]
		},
		{
			"children":[
				0,
				1,
				2,
				3,
				4,
				5,
				6,
				7
			],
			"name":"emergency shower.obj.cleaner.materialmerger.gles"
		},
		{
			"children":[
				8
			],
			"name":"Sketchfab_model",
			"rotation":[
				-0.70710688829422,
				0,
				0,
				0.7071066498756409
			],
			"translation":[
				-0.32904255390167236,
				0.734266459941864,
				-0.14925168454647064
			]
		}
	],
	"materials":[
		{
			"doubleSided":true,
			"name":"Material.000",
			"pbrMetallicRoughness":{
				"baseColorTexture":{
					"index":0
				},
				"metallicFactor":0,
				"roughnessFactor":0.806350827217102
			}
		},
		{
			"doubleSided":true,
			"name":"Material.003",
			"pbrMetallicRoughness":{
				"baseColorFactor":[
					0.7011018991470337,
					0.366252601146698,
					0.00802319310605526,
					1
				],
				"metallicFactor":0,
				"roughnessFactor":0.2699386477470398
			}
		},
		{
			"doubleSided":true,
			"name":"Material.004",
			"pbrMetallicRoughness":{
				"baseColorTexture":{
					"index":1
				},
				"metallicFactor":0,
				"roughnessFactor":0.806350827217102
			}
		},
		{
			"doubleSided":true,
			"name":"None",
			"pbrMetallicRoughness":{
				"baseColorFactor":[
					0.800000011920929,
					0.800000011920929,
					0.800000011920929,
					1
				],
				"roughnessFactor":0.3742331266403198
			}
		},
		{
			"doubleSided":true,
			"name":"material",
			"pbrMetallicRoughness":{
				"metallicFactor":0,
				"roughnessFactor":0.806350827217102
			}
		},
		{
			"doubleSided":true,
			"name":"Material.001",
			"pbrMetallicRoughness":{
				"baseColorFactor":[
					0,
					0.1946178376674652,
					0.05612849071621895,
					1
				],
				"metallicFactor":0,
				"roughnessFactor":0.16564416885375977
			}
		},
		{
			"doubleSided":true,
			"name":"PBR_Metalico",
			"pbrMetallicRoughness":{
				"baseColorFactor":[
					0.5612388253211975,
					0.5612388253211975,
					0.5612388253211975,
					1
				],
				"roughnessFactor":0.19364917278289795
			}
		}
	],
	"meshes":[
		{
			"name":"Object_0",
			"primitives":[
				{
					"attributes":{
						"POSITION":0,
						"TEXCOORD_0":1,
						"NORMAL":2
					},
					"indices":3,
					"material":0
				}
			]
		},
		{
			"name":"Object_1",
			"primitives":[
				{
					"attributes":{
						"POSITION":4,
						"TEXCOORD_0":5,
						"NORMAL":6
					},
					"indices":7,
					"material":1
				}
			]
		},
		{
			"name":"Object_2",
			"primitives":[
				{
					"attributes":{
						"POSITION":8,
						"TEXCOORD_0":9,
						"NORMAL":10
					},
					"indices":11,
					"material":2
				}
			]
		},
		{
			"name":"Object_3",
			"primitives":[
				{
					"attributes":{
						"POSITION":12,
						"TEXCOORD_0":13,
						"NORMAL":14
					},
					"indices":15,
					"material":3
				}
			]
		},
		{
			"name":"Object_4",
			"primitives":[
				{
					"attributes":{
						"POSITION":16,
						"TEXCOORD_0":17,
						"NORMAL":18
					},
					"indices":19,
					"material":4
				}
			]
		},
		{
			"name":"Object_5",
			"primitives":[
				{
					"attributes":{
						"POSITION":20,
						"TEXCOORD_0":21,
						"NORMAL":22
					},
					"indices":23,
					"material":5
				}
			]
		},
		{
			"name":"Object_6",
			"primitives":[
				{
					"attributes":{
						"POSITION":24,
						"TEXCOORD_0":25,
						"NORMAL":26
					},
					"indices":27,
					"material":6
				}
			]
		},
		{
			"name":"Object_7",
			"primitives":[
				{
					"attributes":{
						"POSITION":28,
						"TEXCOORD_0":29,
						"NORMAL":30
					},
					"indices":31,
					"material":6
				}
			]
		}
	],
	"textures":[
		{
			"sampler":0,
			"source":0
		},
		{
			"sampler":0,
			"source":1
		}
	],
	"images":[
		{
			"mimeType":"image/jpeg",
			"name":"Material_000_baseColor",
			"uri":"Material_000_baseColor.jpg"
		},
		{
			"mimeType":"image/png",
			"name":"Material_004_baseColor",
			"uri":"Material_004_baseColor.png"
		}
	],
	"accessors":[
		{
			"bufferView":0,
			"componentType":5126,
			"count":1786,
			"max":[
				-0.23223209381103516,
				0.14965224266052246,
				0.8585060834884644
			],
			"min":[
				-0.43543195724487305,
				0.1488581895828247,
				0.5854560136795044
			],
			"type":"VEC3"
		},
		{
			"bufferView":1,
			"componentType":5126,
			"count":1786,
			"type":"VEC2"
		},
		{
			"bufferView":2,
			"componentType":5126,
			"count":1786,
			"type":"VEC3"
		},
		{
			"bufferView":3,
			"componentType":5123,
			"count":3813,
			"type":"SCALAR"
		},
		{
			"bufferView":4,
			"componentType":5126,
			"count":526,
			"max":[
				-0.28903889656066895,
				0.18925978243350983,
				0.7416479587554932
			],
			"min":[
				-0.36870694160461426,
				0.10959185659885406,
				0.7070379257202148
			],
			"type":"VEC3"
		},
		{
			"bufferView":5,
			"componentType":5126,
			"count":526,
			"type":"VEC2"
		},
		{
			"bufferView":6,
			"componentType":5126,
			"count":526,
			"type":"VEC3"
		},
		{
			"bufferView":7,
			"componentType":5123,
			"count":1914,
			"type":"SCALAR"
		},
		{
			"bufferView":8,
			"componentType":5126,
			"count":32,
			"max":[
				-0.2681300640106201,
				0.15058495104312897,
				0.7732570171356201
			],
			"min":[
				-0.3638880252838135,
				0.1479180008172989,
				0.6780070066452026
			],
			"type":"VEC3"
		},
		{
			"bufferView":9,
			"componentType":5126,
			"count":32,
			"type":"VEC2"
		},
		{
			"bufferView":10,
			"componentType":5126,
			"count":32,
			"type":"VEC3"
		},
		{
			"bufferView":11,
			"componentType":5123,
			"count":84,
			"type":"SCALAR"
		},
		{
			"bufferView":12,
			"componentType":5126,
			"count":36,
			"max":[
				-0.3046680688858032,
				0.15841342508792877,
				0.742224931716919
			],
			"min":[
				-0.3534170389175415,
				0.14008952677249908,
				0.726315975189209
			],
			"type":"VEC3"
		},
		{
			"bufferView":13,
			"componentType":5126,
			"count":36,
			"type":"VEC2"
		},
		{
			"bufferView":14,
			"componentType":5126,
			"count":36,
			"type":"VEC3"
		},
		{
			"bufferView":15,
			"componentType":5123,
			"count":60,
			"type":"SCALAR"
		},
		{
			"bufferView":16,
			"componentType":5126,
			"count":40,
			"max":[
				-0.22744262218475342,
				0.14992642402648926,
				0.8577741384506226
			],
			"min":[
				-0.4306424856185913,
				0.14833831787109375,
				0.5847240686416626
			],
			"type":"VEC3"
		},
		{
			"bufferView":17,
			"componentType":5126,
			"count":40,
			"type":"VEC2"
		},
		{
			"bufferView":18,
			"componentType":5126,
			"count":40,
			"type":"VEC3"
		},
		{
			"bufferView":19,
			"componentType":5123,
			"count":84,
			"type":"SCALAR"
		},
		{
			"bufferView":20,
			"componentType":5126,
			"count":2645,
			"max":[
				-0.1949557065963745,
				0.4069206118583679,
				1.1564061641693115
			],
			"min":[
				-0.46307170391082764,
				-0.15322937071323395,
				-0.011806979775428772
			],
			"type":"VEC3"
		},
		{
			"bufferView":21,
			"componentType":5126,
			"count":2645,
			"type":"VEC2"
		},
		{
			"bufferView":22,
			"componentType":5126,
			"count":2645,
			"type":"VEC3"
		},
		{
			"bufferView":23,
			"componentType":5123,
			"count":10659,
			"type":"SCALAR"
		},
		{
			"bufferView":24,
			"componentType":5126,
			"count":7929,
			"max":[
				-0.15130123496055603,
				0.5737918019294739,
				1.8084899187088013
			],
			"min":[
				-0.5259841084480286,
				-0.1015302985906601,
				0.19142983853816986
			],
			"type":"VEC3"
		},
		{
			"bufferView":25,
			"componentType":5126,
			"count":7929,
			"type":"VEC2"
		},
		{
			"bufferView":26,
			"componentType":5126,
			"count":7929,
			"type":"VEC3"
		},
		{
			"bufferView":27,
			"componentType":5123,
			"count":25011,
			"type":"SCALAR"
		},
		{
			"bufferView":28,
			"componentType":5126,
			"count":6053,
			"max":[
				-0.29440832138061523,
				0.7866668105125427,
				2.039534568786621
			],
			"min":[
				-0.5230083465576172,
				0.004555811174213886,
				-0.22641229629516602
			],
			"type":"VEC3"
		},
		{
			"bufferView":29,
			"componentType":5126,
			"count":6053,
			"type":"VEC2"
		},
		{
			"bufferView":30,
			"componentType":5126,
			"count":6053,
			"type":"VEC3"
		},
		{
			"bufferView":31,
			"componentType":5123,
			"count":16824,
			"type":"SCALAR"
		}
	],
	"bufferViews":[
		{
			"buffer":0,
			"byteLength":21432,
			"byteOffset":0,
			"target":34962
		},
		{
			"buffer":0,
			"byteLength":14288,
			"byteOffset":21432,
			"target":34962
		},
		{
			"buffer":0,
			"byteLength":21432,
			"byteOffset":35720,
			"target":34962
		},
		{
			"buffer":0,
			"byteLength":7626,
			"byteOffset":57152,
			"target":34963
		},
		{
			"buffer":0,
			"byteLength":6312,
			"byteOffset":64780,
			"target":34962
		},
		{
			"buffer":0,
			"byteLength":4208,
			"byteOffset":71092,
			"target":34962
		},
		{
			"buffer":0,
			"byteLength":6312,
			"byteOffset":75300,
			"target":34962
		},
		{
			"buffer":0,
			"byteLength":3828,
			"byteOffset":81612,
			"target":34963
		},
		{
			"buffer":0,
			"byteLength":384,
			"byteOffset":85440,
			"target":34962
		},
		{
			"buffer":0,
			"byteLength":256,
			"byteOffset":85824,
			"target":34962
		},
		{
			"buffer":0,
			"byteLength":384,
			"byteOffset":86080,
			"target":34962
		},
		{
			"buffer":0,
			"byteLength":168,
			"byteOffset":86464,
			"target":34963
		},
		{
			"buffer":0,
			"byteLength":432,
			"byteOffset":86632,
			"target":34962
		},
		{
			"buffer":0,
			"byteLength":288,
			"byteOffset":87064,
			"target":34962
		},
		{
			"buffer":0,
			"byteLength":432,
			"byteOffset":87352,
			"target":34962
		},
		{
			"buffer":0,
			"byteLength":120,
			"byteOffset":87784,
			"target":34963
		},
		{
			"buffer":0,
			"byteLength":480,
			"byteOffset":87904,
			"target":34962
		},
		{
			"buffer":0,
			"byteLength":320,
			"byteOffset":88384,
			"target":34962
		},
		{
			"buffer":0,
			"byteLength":480,
			"byteOffset":88704,
			"target":34962
		},
		{
			"buffer":0,
			"byteLength":168,
			"byteOffset":89184,
			"target":34963
		},
		{
			"buffer":0,
			"byteLength":31740,
			"byteOffset":89352,
			"target":34962
		},
		{
			"buffer":0,
			"byteLength":21160,
			"byteOffset":121092,
			"target":34962
		},
		{
			"buffer":0,
			"byteLength":31740,
			"byteOffset":142252,
			"target":34962
		},
		{
			"buffer":0,
			"byteLength":21318,
			"byteOffset":173992,
			"target":34963
		},
		{
			"buffer":0,
			"byteLength":95148,
			"byteOffset":195312,
			"target":34962
		},
		{
			"buffer":0,
			"byteLength":63432,
			"byteOffset":290460,
			"target":34962
		},
		{
			"buffer":0,
			"byteLength":95148,
			"byteOffset":353892,
			"target":34962
		},
		{
			"buffer":0,
			"byteLength":50022,
			"byteOffset":449040,
			"target":34963
		},
		{
			"buffer":0,
			"byteLength":72636,
			"byteOffset":499064,
			"target":34962
		},
		{
			"buffer":0,
			"byteLength":48424,
			"byteOffset":571700,
			"target":34962
		},
		{
			"buffer":0,
			"byteLength":72636,
			"byteOffset":620124,
			"target":34962
		},
		{
			"buffer":0,
			"byteLength":33648,
			"byteOffset":692760,
			"target":34963
		}
	],
	"samplers":[
		{
			"magFilter":9729,
			"minFilter":9987
		}
	],
	"buffers":[
		{
			"byteLength":726408,
			"uri":"scene.bin"
		}
	]
}
